#!OML:ASF H:\ManfredObstacles\Project 1\Capture day 2\Session 1\male.ASF
:FULLY-SPECIFIED
:DEGREES
242
root 1.94858 8.57837 7.00281 -104.61 -1.59073 165.28
lowerback 22.9775 2.22848 -0.866766
upperback 8.54297 1.51443 -2.44087
thorax -3.40923 0.395859 -2.4898
lowerneck -22.7327 -5.292 3.7738
upperneck 7.69275 -8.83117 4.82449
head 6.03149 -3.72851 -0.0414376
rclavicle 3.18055e-015 3.97569e-016
rhumerus 26.8016 -27.4977 -65.0025
rradius 88.8911
rwrist 27.082
rhand -29.6251 -13.0654
rfingers 7.12502
rthumb -2.95539 -43.0246
lclavicle 3.18055e-015 3.97569e-016
lhumerus 25.9835 -29.8699 67.2119
lradius 68.4901
lwrist -39.2157
lhand -50.5256 34.1194
lfingers 7.12502
lthumb -23.0935 62.7555
rfemur -72.7145 -13.7754 27.6866
rtibia 124.942
rfoot 17.0102 -7.79293
rtoes 4.84711
lfemur -77.9058 0.0794781 -18.878
ltibia 117.624
lfoot 1.82535 1.43305
ltoes -3.33755
243
root 1.97179 8.56338 6.8989 -104.432 -1.22487 165.514
lowerback 22.7275 2.28492 -1.20857
upperback 8.53112 1.50803 -2.70852
thorax -3.30032 0.392369 -2.57504
lowerneck -22.6604 -5.24118 3.85186
upperneck 7.63617 -8.79267 4.91865
head 6.00412 -3.70436 -0.01657
rclavicle -9.54166e-015 2.8625e-014
rhumerus 26.3667 -26.9165 -65.313
rradius 88.9392
rwrist 26.7949
rhand -33.6392 -12.5549
rfingers 7.12502
rthumb -6.8313 -42.4247
lclavicle -9.54166e-015 2.8625e-014
lhumerus 25.2542 -29.71 67.3558
lradius 68.3193
lwrist -39.3835
lhand -50.8313 34.424
lfingers 7.12502
lthumb -23.3867 63.023
rfemur -72.0779 -13.0347 27.7497
rtibia 124.283
rfoot 16.9406 -7.83544
rtoes 4.11235
lfemur -79.2405 0.342674 -18.6328
ltibia 119.477
lfoot 0.789605 2.84725
ltoes -3.872
244
root 1.9953 8.54906 6.79166 -104.353 -0.870525 165.773
lowerback 22.5576 2.31402 -1.57735
upperback 8.55544 1.45095 -2.94289
thorax -3.19529 0.358638 -2.59811
lowerneck -22.5748 -5.14816 3.82792
upperneck 7.54893 -8.66955 5.02057
head 5.96888 -3.64492 0.0363853
rclavicle -1.90833e-014 -3.57812e-015
rhumerus 25.8505 -26.1129 -65.8057
rradius 89.051
rwrist 26.67
rhand -34.1751 -11.548
rfingers 7.12502
rthumb -7.34861 -41.4004
lclavicle -1.90833e-014 -3.57812e-015
lhumerus 24.5067 -29.387 67.4887
lradius 68.1122
lwrist -39.5318
lhand -51.1104 34.728
lfingers 7.12502
lthumb -23.6545 63.2927
rfemur -71.301 -12.3274 27.7858
rtibia 123.571
rfoot 16.7523 -7.80841
rtoes 3.40374
lfemur -80.5122 0.697998 -18.4118
ltibia 121.372
lfoot -0.229506 4.45255
ltoes -4.39852
245
root 2.01796 8.53572 6.68296 -104.379 -0.534536 166.044
lowerback 22.4826 2.31118 -1.93021
upperback 8.61131 1.34432 -3.15905
thorax -3.10457 0.296241 -2.60088
lowerneck -22.5092 -5.01097 3.75909
upperneck 7.46831 -8.47675 5.10996
head 5.93945 -3.55456 0.0992579
rclavicle -6.36111e-014 -2.82274e-014
rhumerus 25.2817 -25.1761 -66.4481
rradius 89.2116
rwrist 26.9206
rhand -34.6221 -10.8553
rfingers 7.12502
rthumb -7.78006 -40.6922
lclavicle -6.36111e-014 -2.82274e-014
lhumerus 23.761 -28.9461 67.5725
lradius 67.8683
lwrist -39.677
lhand -51.3514 35.078
lfingers 7.12502
lthumb -23.8857 63.6126
rfemur -70.402 -11.6885 27.7952
rtibia 122.828
rfoot 16.5422 -7.71507
rtoes 2.93983
lfemur -81.7311 1.13477 -18.2221
ltibia 123.307
lfoot -1.19908 6.1951
ltoes -4.94351
246
root 2.03996 8.5238 6.57368 -104.539 -0.23055 166.344
lowerback 22.5413 2.31337 -2.23511
upperback 8.69886 1.24028 -3.3568
thorax -3.04473 0.231855 -2.61529
lowerneck -22.4764 -4.86043 3.67964
upperneck 7.41567 -8.26481 5.18
head 5.92305 -3.45513 0.158527
rclavicle 2.8625e-014 -2.66371e-014
rhumerus 24.6506 -24.2317 -67.139
rradius 89.398
rwrist 27.3919
rhand -34.9728 -10.4822
rfingers 7.12502
rthumb -8.11848 -40.3063
lclavicle 2.8625e-014 -2.66371e-014
lhumerus 23.0746 -28.5023 67.5758
lradius 67.5813
lwrist -39.7919
lhand -51.5622 35.4762
lfingers 7.12502
lthumb -24.0878 63.9843
rfemur -69.3431 -11.0829 27.7985
rtibia 122.059
rfoot 16.2821 -7.61098
rtoes 2.61241
lfemur -82.8717 1.6951 -18.0416
ltibia 125.278
lfoot -2.16682 8.01848
ltoes -5.58199
247
root 2.06059 8.5128 6.46636 -104.792 0.0347886 166.666
lowerback 22.6818 2.32868 -2.48465
upperback 8.80448 1.15709 -3.52831
thorax -3.00418 0.176352 -2.64015
lowerneck -22.4811 -4.70722 3.61901
upperneck 7.41326 -8.05412 5.21006
head 5.92561 -3.35571 0.20063
rclavicle 0 2.38542e-015
rhumerus 23.9695 -23.3057 -67.7648
rradius 89.571
rwrist 27.8615
rhand -35.3298 -10.2538
rfingers 7.12502
rthumb -8.46301 -40.0642
lclavicle 0 2.38542e-015
lhumerus 22.4515 -28.1072 67.5163
lradius 67.2397
lwrist -39.8964
lhand -51.7326 35.942
lfingers 7.12502
lthumb -24.2512 64.4283
rfemur -68.1962 -10.518 27.8116
rtibia 121.297
rfoot 16.0412 -7.50612
rtoes 2.38009
lfemur -84.009 2.39154 -17.8675
ltibia 127.288
lfoot -3.16457 9.87124
ltoes -6.30689
248
root 2.07971 8.50216 6.36294 -105.105 0.25598 167.008
lowerback 22.8525 2.36644 -2.68384
upperback 8.92224 1.11225 -3.66155
thorax -2.96363 0.139464 -2.66261
lowerneck -22.4775 -4.56484 3.56853
upperneck 7.40926 -7.85369 5.19841
head 5.92367 -3.26431 0.227136
rclavicle 2.54444e-014 -1.31198e-014
rhumerus 23.28 -22.4026 -68.247
rradius 89.6905
rwrist 28.1776
rhand -35.754 -10.0747
rfingers 7.12502
rthumb -8.87246 -39.8682
lclavicle 2.54444e-014 -1.31198e-014
lhumerus 21.8944 -27.7927 67.4231
lradius 66.841
lwrist -39.9566
lhand -51.8723 36.4292
lfingers 7.12502
lthumb -24.3851 64.8976
rfemur -67.017 -9.9822 27.8524
rtibia 120.567
rfoot 15.8761 -7.43176
rtoes 2.22122
lfemur -85.2077 3.25582 -17.7014
ltibia 129.339
lfoot -4.21429 11.7046
ltoes -7.09025
249
root 2.09801 8.49165 6.26279 -105.493 0.450469 167.382
lowerback 23.0787 2.43133 -2.81861
upperback 9.04962 1.11023 -3.7919
thorax -2.937 0.124073 -2.73083
lowerneck -22.4749 -4.4365 3.56621
upperneck 7.42706 -7.68266 5.16407
head 5.92628 -3.18592 0.235509
rclavicle 0 2.82274e-014
rhumerus 22.6079 -21.5451 -68.5912
rradius 89.7335
rwrist 28.3065
rhand -36.2661 -9.87836
rfingers 7.12502
rthumb -9.3666 -39.6503
lclavicle 0 2.82274e-014
lhumerus 21.4125 -27.5997 67.2512
lradius 66.3847
lwrist -39.955
lhand -51.9874 36.9194
lfingers 7.12502
lthumb -24.4954 65.3729
rfemur -65.7813 -9.45267 27.9094
rtibia 119.867
rfoot 15.7708 -7.42056
rtoes 2.00856
lfemur -86.4264 4.35287 -17.5576
ltibia 131.396
lfoot -5.3702 13.4515
ltoes -7.87262
250
root 2.11556 8.48094 6.16581 -105.947 0.620568 167.796
lowerback 23.2921 2.53595 -2.99038
upperback 9.21301 1.1528 -3.84612
thorax -2.86573 0.126935 -2.70631
lowerneck -22.4801 -4.30998 3.54068
upperneck 7.44516 -7.50226 5.08997
head 5.92894 -3.1068 0.235774
rclavicle -1.59028e-014 4.92986e-014
rhumerus 22.0497 -20.6467 -68.7213
rradius 89.6866
rwrist 28.3027
rhand -36.8522 -9.76117
rfingers 7.12502
rthumb -9.93209 -39.5069
lclavicle -1.59028e-014 4.92986e-014
lhumerus 20.978 -27.409 67.1308
lradius 65.871
lwrist -39.9043
lhand -52.0844 37.3681
lfingers 7.12502
lthumb -24.5884 65.8089
rfemur -64.4948 -8.90985 27.9842
rtibia 119.197
rfoot 15.7726 -7.47929
rtoes 1.7133
lfemur -87.6756 5.73795 -17.4576
ltibia 133.437
lfoot -6.64045 15.047
ltoes -8.61484
251
root 2.13384 8.47011 6.06866 -106.55 0.786077 168.282
lowerback 23.633 2.67944 -3.13275
upperback 9.40999 1.23231 -3.908
thorax -2.81798 0.144892 -2.71974
lowerneck -22.474 -4.17484 3.58055
upperneck 7.45312 -7.32743 5.01394
head 5.92447 -3.02919 0.22508
rclavicle 2.8625e-014 6.12257e-014
rhumerus 21.5428 -19.7533 -68.7792
rradius 89.5739
rwrist 28.3207
rhand -37.4703 -9.78258
rfingers 7.12502
rthumb -10.5283 -39.4989
lclavicle 2.8625e-014 6.12257e-014
lhumerus 20.5929 -27.2686 66.949
lradius 65.3224
lwrist -39.7746
lhand -52.1772 37.7498
lfingers 7.12502
lthumb -24.6773 66.1785
rfemur -63.0175 -8.31593 28.0602
rtibia 118.52
rfoot 15.9074 -7.64387
rtoes 1.5408
lfemur -88.7859 7.5378 -17.4202
ltibia 135.408
lfoot -8.06588 16.4741
ltoes -9.25357
252
root 2.15266 8.45924 5.97054 -107.303 0.946311 168.832
lowerback 24.107 2.85214 -3.24387
upperback 9.63924 1.33385 -3.98095
thorax -2.79717 0.170325 -2.77293
lowerneck -22.4582 -4.0343 3.6612
upperneck 7.45687 -7.16102 4.97178
head 5.91769 -2.95194 0.218082
rclavicle 3.18055e-014 -1.55052e-014
rhumerus 21.061 -18.8472 -68.8193
rradius 89.4219
rwrist 28.3691
rhand -38.0662 -9.95497
rfingers 7.12502
rthumb -11.1031 -39.6413
lclavicle 3.18055e-014 -1.55052e-014
lhumerus 20.2394 -27.1521 66.7145
lradius 64.7562
lwrist -39.5408
lhand -52.2717 38.0429
lfingers 7.12502
lthumb -24.768 66.4593
rfemur -61.3304 -7.67973 28.1368
rtibia 117.82
rfoot 16.0685 -7.93379
rtoes 1.41009
lfemur -89.7481 9.78668 -17.461
ltibia 137.276
lfoot -9.6488 17.705
ltoes -9.77633
253
root 2.17088 8.44757 5.87299 -108.132 1.11145 169.407
lowerback 24.628 3.02462 -3.33871
upperback 9.89002 1.42402 -4.06551
thorax -2.77288 0.187444 -2.84745
lowerneck -22.45 -3.8776 3.77358
upperneck 7.46427 -6.9863 4.94951
head 5.91339 -2.86804 0.213174
rclavicle -3.18055e-015 6.36111e-014
rhumerus 20.6166 -17.9053 -68.8996
rradius 89.2054
rwrist 28.6104
rhand -38.6274 -10.3015
rfingers 7.12502
rthumb -11.6443 -39.958
lclavicle -3.18055e-015 6.36111e-014
lhumerus 19.8877 -26.9999 66.4674
lradius 64.167
lwrist -39.2603
lhand -52.3869 38.3511
lfingers 7.12502
lthumb -24.8783 66.7522
rfemur -59.5133 -7.04444 28.2062
rtibia 117.159
rfoot 16.2262 -8.31578
rtoes 1.45409
lfemur -90.6336 12.4463 -17.6269
ltibia 139.041
lfoot -11.3638 18.79
ltoes -10.2224
254
root 2.18805 8.43531 5.77566 -109.024 1.28448 169.993
lowerback 25.1846 3.20257 -3.42531
upperback 10.1596 1.5105 -4.15034
thorax -2.74222 0.200024 -2.92818
lowerneck -22.4589 -3.71725 3.90536
upperneck 7.48007 -6.81474 4.9307
head 5.91426 -2.78423 0.205567
rclavicle 2.38542e-014 2.8625e-014
rhumerus 20.1922 -16.9522 -69.0217
rradius 88.9363
rwrist 28.9786
rhand -39.1283 -10.7209
rfingers 7.12502
rthumb -12.1274 -40.3495
lclavicle 2.38542e-014 2.8625e-014
lhumerus 19.5427 -26.817 66.243
lradius 63.5483
lwrist -38.9777
lhand -52.5238 38.7033
lfingers 7.12502
lthumb -25.0095 67.0862
rfemur -57.6079 -6.4223 28.2622
rtibia 116.496
rfoot 16.3898 -8.76025
rtoes 1.52455
lfemur -91.5125 15.4736 -17.9316
ltibia 140.662
lfoot -13.1509 19.6925
ltoes -10.5801
255
root 2.18383 8.39153 5.7538 -109.908 1.464 170.57
lowerback 25.6968 3.37109 -3.50426
upperback 10.431 1.58592 -4.22826
thorax -2.68568 0.20634 -3.00248
lowerneck -22.4794 -3.55472 4.02586
upperneck 7.51009 -6.64066 4.9237
head 5.92265 -2.6978 0.203355
rclavicle -1.59028e-014 -2.10712e-014
rhumerus 19.7887 -15.9716 -69.177
rradius 88.6185
rwrist 29.383
rhand -39.5999 -11.1074
rfingers 7.12502
rthumb -12.5821 -40.7085
lclavicle -1.59028e-014 -2.10712e-014
lhumerus 19.1869 -26.5893 66.0692
lradius 62.8951
lwrist -38.7438
lhand -52.682 39.159
lfingers 7.12502
lthumb -25.1611 67.5207
rfemur -56.2347 -5.83979 28.2992
rtibia 116.465
rfoot 16.4427 -9.26655
rtoes 1.61567
lfemur -93.3853 18.3252 -18.3606
ltibia 142.794
lfoot -14.5913 20.2946
ltoes -10.8716
